<?xml version="1.0" encoding="UTF-8" standalone="no"?><svg xmlns="http://www.w3.org/2000/svg" xmlns:xlink="http://www.w3.org/1999/xlink" contentScriptType="application/ecmascript" contentStyleType="text/css" height="1215px" preserveAspectRatio="none" style="width:1395px;height:1215px;" version="1.1" viewBox="0 0 1395 1215" width="1395px" zoomAndPan="magnify"><defs/><g><text fill="#000000" font-family="Arial" font-size="18" lengthAdjust="spacingAndGlyphs" textLength="225" x="591" y="19.2419">PAX - Arhitectura generală</text><!--MD5=[8699c0c8e953ee53654a072cc875bfb4]
cluster Browser--><polygon fill="#FFFFFF" points="30,196.2958,40,186.2958,329,186.2958,329,734.5158,319,744.5158,30,744.5158,30,196.2958" style="stroke: #000000; stroke-width: 1.5;"/><line style="stroke: #000000; stroke-width: 1.5;" x1="319" x2="328" y1="196.2958" y2="187.2958"/><line style="stroke: #000000; stroke-width: 1.5;" x1="30" x2="319" y1="196.2958" y2="196.2958"/><line style="stroke: #000000; stroke-width: 1.5;" x1="319" x2="319" y1="196.2958" y2="744.5158"/><text fill="#000000" font-family="Arial" font-size="14" font-weight="bold" lengthAdjust="spacingAndGlyphs" textLength="57" x="147" y="214.2618">Browser</text><!--MD5=[fac864e77539af95038f0151207ed802]
cluster API--><polygon fill="#FFFFFF" points="369,626.0158,444,626.0158,451,651.0838,833,651.0838,833,923.5158,369,923.5158,369,626.0158" style="stroke: #000000; stroke-width: 1.5;"/><line style="stroke: #000000; stroke-width: 1.5;" x1="369" x2="451" y1="651.0838" y2="651.0838"/><text fill="#000000" font-family="Arial" font-size="14" font-weight="bold" lengthAdjust="spacingAndGlyphs" textLength="69" x="373" y="642.9818">public/api</text><!--MD5=[975d7fda8cf98ff1a26ca528bf10cecf]
cluster App--><polygon fill="#FFFFFF" points="865,803.5158,897,803.5158,904,828.5838,1373,828.5838,1373,1071.5158,865,1071.5158,865,803.5158" style="stroke: #000000; stroke-width: 1.5;"/><line style="stroke: #000000; stroke-width: 1.5;" x1="865" x2="904" y1="828.5838" y2="828.5838"/><text fill="#000000" font-family="Arial" font-size="14" font-weight="bold" lengthAdjust="spacingAndGlyphs" textLength="26" x="869" y="820.4818">app</text><!--MD5=[d7a5c77c0326e13cb0d0f5382ea726b9]
entity Pages--><rect fill="#EFF6FF" height="77.2038" style="stroke: #334155; stroke-width: 1.5;" width="206" x="99" y="301.0158"/><rect fill="#EFF6FF" height="5" style="stroke: #334155; stroke-width: 1.5;" width="10" x="94" y="306.0158"/><rect fill="#EFF6FF" height="5" style="stroke: #334155; stroke-width: 1.5;" width="10" x="94" y="368.2196"/><text fill="#000000" font-family="Arial" font-size="14" lengthAdjust="spacingAndGlyphs" textLength="126" x="109" y="325.9818">Pagini publice PHP</text><text fill="#000000" font-family="Arial" font-size="14" lengthAdjust="spacingAndGlyphs" textLength="166" x="109" y="345.0497">index, dashboard, hartă,</text><text fill="#000000" font-family="Arial" font-size="14" lengthAdjust="spacingAndGlyphs" textLength="186" x="109" y="364.1176">căutare, comparații, despre</text><!--MD5=[ad41aca18c70598adf1be20eed337942]
entity JS--><rect fill="#EFF6FF" height="96.2717" style="stroke: #334155; stroke-width: 1.5;" width="165" x="131.5" y="457.0158"/><rect fill="#EFF6FF" height="5" style="stroke: #334155; stroke-width: 1.5;" width="10" x="126.5" y="462.0158"/><rect fill="#EFF6FF" height="5" style="stroke: #334155; stroke-width: 1.5;" width="10" x="126.5" y="543.2875"/><text fill="#000000" font-family="Arial" font-size="14" lengthAdjust="spacingAndGlyphs" textLength="128" x="141.5" y="481.9818">JavaScript asincron</text><text fill="#000000" font-family="Arial" font-size="14" lengthAdjust="spacingAndGlyphs" textLength="102" x="141.5" y="501.0497">api.js, filters.js,</text><text fill="#000000" font-family="Arial" font-size="14" lengthAdjust="spacingAndGlyphs" textLength="145" x="141.5" y="520.1176">dashboard.js, map.js,</text><text fill="#000000" font-family="Arial" font-size="14" lengthAdjust="spacingAndGlyphs" textLength="142" x="141.5" y="539.1855">search.js, compare.js</text><!--MD5=[9ddfb8ef05073ca06028b0f5cfe3c611]
entity Chart--><rect fill="#EFF6FF" height="58.1358" style="stroke: #334155; stroke-width: 1.5;" width="75" x="53.5" y="662.5158"/><rect fill="#EFF6FF" height="5" style="stroke: #334155; stroke-width: 1.5;" width="10" x="48.5" y="667.5158"/><rect fill="#EFF6FF" height="5" style="stroke: #334155; stroke-width: 1.5;" width="10" x="48.5" y="710.6517"/><text fill="#000000" font-family="Arial" font-size="14" lengthAdjust="spacingAndGlyphs" textLength="52" x="63.5" y="687.4818">Chart.js</text><text fill="#000000" font-family="Arial" font-size="14" lengthAdjust="spacingAndGlyphs" textLength="55" x="63.5" y="706.5497">(grafice)</text><!--MD5=[97f66936be5f5071a17a49cbaf0ae30d]
entity Leaflet--><rect fill="#EFF6FF" height="58.1358" style="stroke: #334155; stroke-width: 1.5;" width="65" x="175.5" y="662.5158"/><rect fill="#EFF6FF" height="5" style="stroke: #334155; stroke-width: 1.5;" width="10" x="170.5" y="667.5158"/><rect fill="#EFF6FF" height="5" style="stroke: #334155; stroke-width: 1.5;" width="10" x="170.5" y="710.6517"/><text fill="#000000" font-family="Arial" font-size="14" lengthAdjust="spacingAndGlyphs" textLength="45" x="185.5" y="687.4818">Leaflet</text><text fill="#000000" font-family="Arial" font-size="14" lengthAdjust="spacingAndGlyphs" textLength="44" x="185.5" y="706.5497">(hartă)</text><!--MD5=[30f1f4921824c411367b6650fe2ca19d]
entity FiltersApi--><rect fill="#EFF6FF" height="39.0679" style="stroke: #334155; stroke-width: 1.5;" width="90" x="393" y="672.0158"/><rect fill="#EFF6FF" height="5" style="stroke: #334155; stroke-width: 1.5;" width="10" x="388" y="677.0158"/><rect fill="#EFF6FF" height="5" style="stroke: #334155; stroke-width: 1.5;" width="10" x="388" y="701.0838"/><text fill="#000000" font-family="Arial" font-size="14" lengthAdjust="spacingAndGlyphs" textLength="70" x="403" y="696.9818">filters.php</text><!--MD5=[aefca23fd9d4299d6924b40646abaae3]
entity StatisticsApi--><rect fill="#EFF6FF" height="39.0679" style="stroke: #334155; stroke-width: 1.5;" width="110" x="518" y="672.0158"/><rect fill="#EFF6FF" height="5" style="stroke: #334155; stroke-width: 1.5;" width="10" x="513" y="677.0158"/><rect fill="#EFF6FF" height="5" style="stroke: #334155; stroke-width: 1.5;" width="10" x="513" y="701.0838"/><text fill="#000000" font-family="Arial" font-size="14" lengthAdjust="spacingAndGlyphs" textLength="90" x="528" y="696.9818">statistics.php</text><!--MD5=[0a3da6365a51baa7d2960bad54b4e4a0]
entity SearchApi--><rect fill="#EFF6FF" height="39.0679" style="stroke: #334155; stroke-width: 1.5;" width="96" x="663" y="672.0158"/><rect fill="#EFF6FF" height="5" style="stroke: #334155; stroke-width: 1.5;" width="10" x="658" y="677.0158"/><rect fill="#EFF6FF" height="5" style="stroke: #334155; stroke-width: 1.5;" width="10" x="658" y="701.0838"/><text fill="#000000" font-family="Arial" font-size="14" lengthAdjust="spacingAndGlyphs" textLength="76" x="673" y="696.9818">search.php</text><!--MD5=[9781bae4fe4bedec157a2f45697e1f2f]
entity MapApi--><rect fill="#EFF6FF" height="39.0679" style="stroke: #334155; stroke-width: 1.5;" width="81" x="393.5" y="860.5158"/><rect fill="#EFF6FF" height="5" style="stroke: #334155; stroke-width: 1.5;" width="10" x="388.5" y="865.5158"/><rect fill="#EFF6FF" height="5" style="stroke: #334155; stroke-width: 1.5;" width="10" x="388.5" y="889.5838"/><text fill="#000000" font-family="Arial" font-size="14" lengthAdjust="spacingAndGlyphs" textLength="61" x="403.5" y="885.4818">map.php</text><!--MD5=[a7050d961bfba52857ba681c9999d3fc]
entity BrandMapApi--><rect fill="#EFF6FF" height="39.0679" style="stroke: #334155; stroke-width: 1.5;" width="162" x="510" y="860.5158"/><rect fill="#EFF6FF" height="5" style="stroke: #334155; stroke-width: 1.5;" width="10" x="505" y="865.5158"/><rect fill="#EFF6FF" height="5" style="stroke: #334155; stroke-width: 1.5;" width="10" x="505" y="889.5838"/><text fill="#000000" font-family="Arial" font-size="14" lengthAdjust="spacingAndGlyphs" textLength="142" x="520" y="885.4818">brand-map-data.php</text><!--MD5=[caada35bd9959cd25f64600167c9f716]
entity ExportApi--><rect fill="#EFF6FF" height="39.0679" style="stroke: #334155; stroke-width: 1.5;" width="94" x="707" y="860.5158"/><rect fill="#EFF6FF" height="5" style="stroke: #334155; stroke-width: 1.5;" width="10" x="702" y="865.5158"/><rect fill="#EFF6FF" height="5" style="stroke: #334155; stroke-width: 1.5;" width="10" x="702" y="889.5838"/><text fill="#000000" font-family="Arial" font-size="14" lengthAdjust="spacingAndGlyphs" textLength="74" x="717" y="885.4818">export.php</text><!--MD5=[5c498421fa24c5308be4ccdba9471ec5]
entity Helpers--><rect fill="#EFF6FF" height="58.1358" style="stroke: #334155; stroke-width: 1.5;" width="131" x="881.5" y="851.0158"/><rect fill="#EFF6FF" height="5" style="stroke: #334155; stroke-width: 1.5;" width="10" x="876.5" y="856.0158"/><rect fill="#EFF6FF" height="5" style="stroke: #334155; stroke-width: 1.5;" width="10" x="876.5" y="899.1517"/><text fill="#000000" font-family="Arial" font-size="14" lengthAdjust="spacingAndGlyphs" textLength="97" x="891.5" y="875.9818">validators.php</text><text fill="#000000" font-family="Arial" font-size="14" lengthAdjust="spacingAndGlyphs" textLength="111" x="891.5" y="895.0497">normalizers.php</text><!--MD5=[abd0ad01589357b3baa3551a551ab5d8]
entity Response--><rect fill="#EFF6FF" height="39.0679" style="stroke: #334155; stroke-width: 1.5;" width="116" x="1048" y="860.5158"/><rect fill="#EFF6FF" height="5" style="stroke: #334155; stroke-width: 1.5;" width="10" x="1043" y="865.5158"/><rect fill="#EFF6FF" height="5" style="stroke: #334155; stroke-width: 1.5;" width="10" x="1043" y="889.5838"/><text fill="#000000" font-family="Arial" font-size="14" lengthAdjust="spacingAndGlyphs" textLength="96" x="1058" y="885.4818">Response.php</text><!--MD5=[ca90e29f08732e1f8975e741fe954bc8]
entity Repositories--><rect fill="#EFF6FF" height="77.2038" style="stroke: #334155; stroke-width: 1.5;" width="158" x="1199" y="841.5158"/><rect fill="#EFF6FF" height="5" style="stroke: #334155; stroke-width: 1.5;" width="10" x="1194" y="846.5158"/><rect fill="#EFF6FF" height="5" style="stroke: #334155; stroke-width: 1.5;" width="10" x="1194" y="908.7196"/><text fill="#000000" font-family="Arial" font-size="14" lengthAdjust="spacingAndGlyphs" textLength="108" x="1209" y="866.4818">Repository layer</text><text fill="#000000" font-family="Arial" font-size="14" lengthAdjust="spacingAndGlyphs" textLength="106" x="1209" y="885.5497">Filter, Statistics,</text><text fill="#000000" font-family="Arial" font-size="14" lengthAdjust="spacingAndGlyphs" textLength="138" x="1209" y="904.6176">Vehicle, Map, Admin</text><!--MD5=[fa1e3283224feb76407c84b7e90ed808]
entity Database--><rect fill="#EFF6FF" height="58.1358" style="stroke: #334155; stroke-width: 1.5;" width="114" x="1221" y="997.5158"/><rect fill="#EFF6FF" height="5" style="stroke: #334155; stroke-width: 1.5;" width="10" x="1216" y="1002.5158"/><rect fill="#EFF6FF" height="5" style="stroke: #334155; stroke-width: 1.5;" width="10" x="1216" y="1045.6517"/><text fill="#000000" font-family="Arial" font-size="14" lengthAdjust="spacingAndGlyphs" textLength="94" x="1231" y="1022.4818">Database.php</text><text fill="#000000" font-family="Arial" font-size="14" lengthAdjust="spacingAndGlyphs" textLength="76" x="1231" y="1041.5497">PDO SQLite</text><!--MD5=[fee662a292a0353a69bd162820bae93b]
entity User--><ellipse cx="263" cy="41.7958" fill="#FEFECE" rx="8" ry="8" style="stroke: #A80036; stroke-width: 1.5;"/><path d="M263,49.7958 L263,76.7958 M250,57.7958 L276,57.7958 M263,76.7958 L250,91.7958 M263,76.7958 L276,91.7958 " fill="none" style="stroke: #A80036; stroke-width: 1.5;"/><text fill="#000000" font-family="Arial" font-size="14" lengthAdjust="spacingAndGlyphs" textLength="61" x="232.5" y="109.2618">Utilizator</text><!--MD5=[73bd0b46b4ce245e3e8ecc72050cb31c]
entity SQLite--><path d="M1233.5,1146.5158 C1233.5,1136.5158 1278,1136.5158 1278,1136.5158 C1278,1136.5158 1322.5,1136.5158 1322.5,1146.5158 L1322.5,1193.6517 C1322.5,1203.6517 1278,1203.6517 1278,1203.6517 C1278,1203.6517 1233.5,1203.6517 1233.5,1193.6517 L1233.5,1146.5158 " fill="#ECFDF5" style="stroke: #166534; stroke-width: 1.5;"/><path d="M1233.5,1146.5158 C1233.5,1156.5158 1278,1156.5158 1278,1156.5158 C1278,1156.5158 1322.5,1156.5158 1322.5,1146.5158 " fill="none" style="stroke: #166534; stroke-width: 1.5;"/><text fill="#000000" font-family="Arial" font-size="14" lengthAdjust="spacingAndGlyphs" textLength="43" x="1243.5" y="1175.4818">SQLite</text><text fill="#000000" font-family="Arial" font-size="14" lengthAdjust="spacingAndGlyphs" textLength="69" x="1243.5" y="1194.5497">db/pax.db</text><!--MD5=[588da66a1b9d1637518a0b679af23ed3]
entity GeoJSON--><polygon fill="#FEFECE" points="21,851.0158,21,909.1517,345,909.1517,345,861.0158,335,851.0158,21,851.0158" style="stroke: #000000; stroke-width: 1.5;"/><path d="M335,851.0158 L335,861.0158 L345,861.0158 " fill="#FEFECE" style="stroke: #000000; stroke-width: 1.5;"/><text fill="#000000" font-family="Arial" font-size="14" lengthAdjust="spacingAndGlyphs" textLength="107" x="31" y="875.9818">GeoJSON județe</text><text fill="#000000" font-family="Arial" font-size="14" lengthAdjust="spacingAndGlyphs" textLength="304" x="31" y="895.0497">public/assets/data/romania-counties.geojson</text><!--MD5=[ec4c93e45963a154c97e3947d19a9663]
link User to Browser--><path d="M263,113.5358 C263,134.9458 263,161.2308 263,182.4046 C263,183.0663 263,183.723 263,184.3744 C263,184.7001 263,185.0244 263,185.3474 C263,185.5089 263,185.6701 263,185.8309 " fill="none" id="User-&gt;Browser" style="stroke: #334155; stroke-width: 1.0;"/><polygon fill="#334155" points="263,185.8309,267,176.8309,263,180.8309,259,176.8309,263,185.8309" style="stroke: #334155; stroke-width: 1.0;"/><text fill="#000000" font-family="Arial" font-size="13" lengthAdjust="spacingAndGlyphs" textLength="135" x="264" y="158.1929">navigare și interacțiuni</text><!--MD5=[26bf0243cb51325f3de9bef0d53c7c64]
link Browser to Pages--><path d="M262.96,222.0958 C261.88,224.1658 241.23,263.5858 224.26,295.9958 " fill="none" id="Browser-&gt;Pages" style="stroke: #334155; stroke-width: 1.0;"/><polygon fill="#334155" points="221.79,300.7258,229.519,294.6215,224.117,296.3003,222.4381,290.8983,221.79,300.7258" style="stroke: #334155; stroke-width: 1.0;"/><text fill="#000000" font-family="Arial" font-size="13" lengthAdjust="spacingAndGlyphs" textLength="108" x="247" y="266.9129">cereri HTTP pagini</text><!--MD5=[d74b88c10cecf8c609d9e8eed4165d8d]
link Pages to JS--><path d="M204.75,378.0258 C206.36,399.8558 208.4,427.7058 210.16,451.6658 " fill="none" id="Pages-&gt;JS" style="stroke: #334155; stroke-width: 1.0;"/><polygon fill="#334155" points="210.53,456.7158,213.8767,447.453,210.1727,451.7286,205.8972,448.0246,210.53,456.7158" style="stroke: #334155; stroke-width: 1.0;"/><text fill="#000000" font-family="Arial" font-size="13" lengthAdjust="spacingAndGlyphs" textLength="95" x="209" y="422.9129">include scripturi</text><!--MD5=[d565dada1579874fa9f2475239e6a6ae]
link JS to API--><path d="M296.68,532.4458 C372.58,555.4058 488.61,587.2258 592,602.0158 C604.38,603.7858 807.88,601.4558 817,610.0158 C820.175,612.9946 822.6984,616.4324 824.6815,620.1744 C825.6731,622.0454 826.5296,643.08 827.2649,645.0838 " fill="none" id="JS-&gt;API" style="stroke: #334155; stroke-width: 1.0;"/><polygon fill="#334155" points="827.2649,625.9962,827.9195,616.1692,825.5424,621.3023,820.4092,618.9251,827.2649,625.9962" style="stroke: #334155; stroke-width: 1.0;"/><text fill="#000000" font-family="Arial" font-size="13" lengthAdjust="spacingAndGlyphs" textLength="121" x="593" y="597.9129">fetch GET /api/*.php</text><!--MD5=[9f2c80352aa80cf43172113a53b977ad]
link JS to Chart--><path d="M136.74,553.2158 C126.87,562.0558 117.84,572.0158 111,583.0158 C97.17,605.2558 92.44,634.7358 91.01,657.2058 " fill="none" id="JS-&gt;Chart" style="stroke: #334155; stroke-width: 1.0;"/><polygon fill="#334155" points="90.73,662.4658,95.212,653.6959,91.001,657.4732,87.2237,653.2623,90.73,662.4658" style="stroke: #334155; stroke-width: 1.0;"/><text fill="#000000" font-family="Arial" font-size="13" lengthAdjust="spacingAndGlyphs" textLength="90" x="112" y="597.9129">randare grafice</text><!--MD5=[48279b81b0312ec31d530849227cb935]
link JS to Leaflet--><path d="M212.47,553.0458 C211.41,585.5158 210.04,627.9058 209.09,656.9758 " fill="none" id="JS-&gt;Leaflet" style="stroke: #334155; stroke-width: 1.0;"/><polygon fill="#334155" points="208.92,662.2458,213.2007,653.3759,209.0771,657.2483,205.2047,653.1246,208.92,662.2458" style="stroke: #334155; stroke-width: 1.0;"/><text fill="#000000" font-family="Arial" font-size="13" lengthAdjust="spacingAndGlyphs" textLength="82" x="212" y="597.9129">randare hartă</text><!--MD5=[2bc2c4043bbed10a2173e075f8f0290b]
link Leaflet to GeoJSON--><path d="M204.2,720.8458 C199.71,754.3458 192.24,810.0558 187.47,845.6358 " fill="none" id="Leaflet-&gt;GeoJSON" style="stroke: #334155; stroke-width: 1.0;"/><polygon fill="#334155" points="186.79,850.7258,191.938,842.3296,187.4471,845.7692,184.0074,841.2782,186.79,850.7258" style="stroke: #334155; stroke-width: 1.0;"/><text fill="#000000" font-family="Arial" font-size="13" lengthAdjust="spacingAndGlyphs" textLength="97" x="198" y="783.4129">contururi județe</text><!--MD5=[d950aba060db995ffbd0acc3b2d70918]
link API to Helpers--><path d="M833.2403,705.1144 C833.3317,705.2541 833.4237,705.3947 833.5164,705.5364 C833.887,706.103 834.2681,706.6856 834.6592,707.2835 C835.4415,708.4793 836.264,709.7366 837.1239,711.0512 C844.0034,721.5677 853.2806,735.7496 863.5437,751.4383 C884.07,782.8158 908.54,820.2208 925.66,846.3858 " fill="none" id="API-&gt;Helpers" style="stroke: #334155; stroke-width: 1.0;"/><polygon fill="#334155" points="928.47,850.6858,926.8828,840.9657,925.7295,846.5038,920.1915,845.3505,928.47,850.6858" style="stroke: #334155; stroke-width: 1.0;"/><text fill="#000000" font-family="Arial" font-size="13" lengthAdjust="spacingAndGlyphs" textLength="129" x="887" y="783.4129">validare / normalizare</text><!--MD5=[47cbc7967f2b0c67d5e70246269bdb8e]
link API to Repositories--><path d="M833.2061,692.7591 C833.3772,692.7656 833.5509,692.7723 833.727,692.7791 C834.4317,692.8064 835.1763,692.8364 835.96,692.8694 C842.2295,693.1327 850.9981,693.583 861.7644,694.3446 C883.2969,695.8677 912.82,698.6358 946.3225,703.6433 C1013.3275,713.6583 1096.25,732.6308 1163,768.5158 C1194.83,785.6258 1224.1,814.0158 1245.14,837.7258 " fill="none" id="API-&gt;Repositories" style="stroke: #334155; stroke-width: 1.0;"/><polygon fill="#334155" points="1248.44,841.4958,1245.5061,832.0941,1245.1404,837.7392,1239.4954,837.3735,1248.44,841.4958" style="stroke: #334155; stroke-width: 1.0;"/><text fill="#000000" font-family="Arial" font-size="13" lengthAdjust="spacingAndGlyphs" textLength="63" x="1193" y="783.4129">cereri date</text><!--MD5=[c0980e9afd3017ab4b68c10dcae310c7]
link API to Response--><path d="M833.2185,693.8982 C833.7446,693.993 834.2937,694.0929 834.8654,694.198 C836.0086,694.4082 837.2418,694.6392 838.5599,694.8914 C841.1961,695.396 844.1719,695.986 847.4469,696.6663 C860.5469,699.3874 878.435,703.5527 898.5325,709.4721 C938.7275,721.3108 987.76,740.1658 1025,768.5158 C1056.18,792.2558 1080.77,831.2058 1094.35,855.9558 " fill="none" id="API-&gt;Response" style="stroke: #334155; stroke-width: 1.0;"/><polygon fill="#334155" points="1096.75,860.4058,1096.0012,850.5855,1094.3778,856.0044,1088.9589,854.381,1096.75,860.4058" style="stroke: #334155; stroke-width: 1.0;"/><text fill="#000000" font-family="Arial" font-size="13" lengthAdjust="spacingAndGlyphs" textLength="109" x="1045" y="783.4129">JSON standardizat</text><!--MD5=[63cd4bd6416e2648c2d8657d545ff137]
link Repositories to Database--><path d="M1278,918.6058 C1278,941.3658 1278,970.1358 1278,992.1058 " fill="none" id="Repositories-&gt;Database" style="stroke: #334155; stroke-width: 1.0;"/><polygon fill="#334155" points="1278,997.2458,1282,988.2458,1278,992.2458,1274,988.2458,1278,997.2458" style="stroke: #334155; stroke-width: 1.0;"/><text fill="#000000" font-family="Arial" font-size="13" lengthAdjust="spacingAndGlyphs" textLength="59" x="1279" y="963.4129">interogări</text><!--MD5=[452ec47efd0efb0ed6691d304271a92f]
link Database to SQLite--><path d="M1278,1055.8058 C1278,1077.4058 1278,1107.3758 1278,1131.0458 " fill="none" id="Database-&gt;SQLite" style="stroke: #334155; stroke-width: 1.0;"/><polygon fill="#334155" points="1278,1136.3058,1282,1127.3058,1278,1131.3058,1274,1127.3058,1278,1136.3058" style="stroke: #334155; stroke-width: 1.0;"/><text fill="#000000" font-family="Arial" font-size="13" lengthAdjust="spacingAndGlyphs" textLength="27" x="1279" y="1102.4129">PDO</text><!--MD5=[a623818953120c793a00aca3f76215ca]
link API to Browser--><path d="M823.2484,625.7085 C823.211,625.5747 823.1733,625.441 823.1353,625.3074 C822.8312,624.2389 822.5077,623.1771 822.164,622.1239 C820.7889,617.9112 819.0888,613.8358 817,610.0158 C693.85,384.8758 591.76,370.2358 364,252.0158 C353.7725,246.7058 342.4619,242.1927 331.2206,238.4058 C330.518,238.1692 329.8157,237.9353 329.114,237.7043 " fill="none" id="API-&gt;Browser" style="stroke: #334155; stroke-width: 1.0;"/><polygon fill="#334155" points="329.114,237.7043,336.4119,244.318,333.8632,239.2678,338.9135,236.7192,329.114,237.7043" style="stroke: #334155; stroke-width: 1.0;"/><text fill="#000000" font-family="Arial" font-size="13" lengthAdjust="spacingAndGlyphs" textLength="65" x="676" y="422.9129">JSON / CSV</text><!--MD5=[e6d0555ce21348edfdc91568a3056945]
link FiltersApi to StatisticsApi--><!--MD5=[f945f161837ad7768ea0a6d39ff3f5ad]
link StatisticsApi to SearchApi--><!--MD5=[306f20cdbd0618e03efeaddab1ea600c]
link FiltersApi to MapApi--><!--MD5=[2cffd919e227fe727638e0b39c9ad50f]
link MapApi to BrandMapApi--><!--MD5=[d65f312df1eacce79c0d39965360807c]
link BrandMapApi to ExportApi--><!--MD5=[7c2d517de0f08f16e120366aa45cd081]
@startuml
skinparam backgroundColor #FFFFFF
skinparam shadowing false
skinparam componentStyle rectangle
skinparam defaultFontName Arial
skinparam packageStyle rectangle
skinparam ArrowColor #334155
skinparam ComponentBorderColor #334155
skinparam ComponentBackgroundColor #EFF6FF
skinparam DatabaseBackgroundColor #ECFDF5
skinparam DatabaseBorderColor #166534
title PAX - Arhitectura generală

actor "Utilizator" as User

node "Browser" as Browser {
  component "Pagini publice PHP\nindex, dashboard, hartă,\ncăutare, comparații, despre" as Pages
  component "JavaScript asincron\napi.js, filters.js,\ndashboard.js, map.js,\nsearch.js, compare.js" as JS
  component "Chart.js\n(grafice)" as Chart
  component "Leaflet\n(hartă)" as Leaflet
}

package "public/api" as API {
  component "filters.php" as FiltersApi
  component "statistics.php" as StatisticsApi
  component "search.php" as SearchApi
  component "map.php" as MapApi
  component "brand-map-data.php" as BrandMapApi
  component "export.php" as ExportApi
}

package "app" as App {
  component "validators.php\nnormalizers.php" as Helpers
  component "Response.php" as Response
  component "Repository layer\nFilter, Statistics,\nVehicle, Map, Admin" as Repositories
  component "Database.php\nPDO SQLite" as Database
}

database "SQLite\n db/pax.db" as SQLite
file "GeoJSON județe\npublic/assets/data/romania-counties.geojson" as GeoJSON

User - -> Browser : navigare și interacțiuni
Browser - -> Pages : cereri HTTP pagini
Pages - -> JS : include scripturi
JS - -> API : fetch GET /api/*.php
JS - -> Chart : randare grafice
JS - -> Leaflet : randare hartă
Leaflet - -> GeoJSON : contururi județe
API - -> Helpers : validare / normalizare
API - -> Repositories : cereri date
API - -> Response : JSON standardizat
Repositories - -> Database : interogări
Database - -> SQLite : PDO
API - -> Browser : JSON / CSV

@enduml

PlantUML version 1.2020.02(Sun Mar 01 12:22:07 EET 2020)
(GPL source distribution)
Java Runtime: OpenJDK Runtime Environment
JVM: OpenJDK 64-Bit Server VM
Java Version: 21.0.10+7-LTS
Operating System: Linux
Default Encoding: UTF-8
Language: en
Country: null
--></g></svg>