<?xml version="1.0" encoding="UTF-8" standalone="no"?><svg xmlns="http://www.w3.org/2000/svg" xmlns:xlink="http://www.w3.org/1999/xlink" contentScriptType="application/ecmascript" contentStyleType="text/css" height="610px" preserveAspectRatio="none" style="width:1101px;height:610px;" version="1.1" viewBox="0 0 1101 610" width="1101px" zoomAndPan="magnify"><defs/><g><text fill="#000000" font-family="Arial" font-size="18" lengthAdjust="spacingAndGlyphs" textLength="165" x="467.5" y="19.2419">PAX - C4 simplificat</text><!--MD5=[a213d9c709e9f7dcd7971b96df643395]
cluster Pax--><rect fill="#F8FAFC" height="421" style="stroke: #334155; stroke-width: 1.5;" width="473" x="228.5" y="178.5158"/><text fill="#000000" font-family="Arial" font-size="14" font-weight="bold" lengthAdjust="spacingAndGlyphs" textLength="146" x="392" y="195.4818">PAX Web Application</text><!--MD5=[056db7644fd855972490fe1694f3faa1]
cluster External--><rect fill="#F8FAFC" height="93" style="stroke: #334155; stroke-width: 1.5;" width="205" x="725.5" y="351.0158"/><text fill="#000000" font-family="Arial" font-size="14" font-weight="bold" lengthAdjust="spacingAndGlyphs" textLength="121" x="767.5" y="367.9818">Biblioteci externe</text><!--MD5=[194a92f280a7d2c2f105939ff984a7cf]
entity Frontend--><rect fill="#F8FAFC" height="58.1358" style="stroke: #334155; stroke-width: 1.5;" width="228" x="457.5" y="216.5158"/><text fill="#000000" font-family="Arial" font-size="14" lengthAdjust="spacingAndGlyphs" textLength="131" x="467.5" y="241.4818">Container Frontend</text><text fill="#000000" font-family="Arial" font-size="14" lengthAdjust="spacingAndGlyphs" textLength="208" x="467.5" y="260.5497">Pagini PHP publice + JavaScript</text><!--MD5=[3ba3a2526070105b46ec00f2c424178e]
entity ApiContainer--><rect fill="#F8FAFC" height="58.1358" style="stroke: #334155; stroke-width: 1.5;" width="198" x="487.5" y="379.5158"/><text fill="#000000" font-family="Arial" font-size="14" lengthAdjust="spacingAndGlyphs" textLength="92" x="497.5" y="404.4818">Container API</text><text fill="#000000" font-family="Arial" font-size="14" lengthAdjust="spacingAndGlyphs" textLength="178" x="497.5" y="423.5497">Endpointuri PHP JSON/CSV</text><!--MD5=[09020939085df290a37ae76572db06ad]
entity AdminContainer--><rect fill="#F8FAFC" height="58.1358" style="stroke: #334155; stroke-width: 1.5;" width="207" x="245" y="379.5158"/><text fill="#000000" font-family="Arial" font-size="14" lengthAdjust="spacingAndGlyphs" textLength="114" x="255" y="404.4818">Container Admin</text><text fill="#000000" font-family="Arial" font-size="14" lengthAdjust="spacingAndGlyphs" textLength="187" x="255" y="423.5497">Pagini admin + sesiune PHP</text><!--MD5=[e7b4ba715b9378c57f39440bbe1913bc]
entity Persistence--><path d="M504,526.5158 C504,516.5158 586.5,516.5158 586.5,516.5158 C586.5,516.5158 669,516.5158 669,526.5158 L669,573.6517 C669,583.6517 586.5,583.6517 586.5,583.6517 C586.5,583.6517 504,583.6517 504,573.6517 L504,526.5158 " fill="#FEFECE" style="stroke: #000000; stroke-width: 1.5;"/><path d="M504,526.5158 C504,536.5158 586.5,536.5158 586.5,536.5158 C586.5,536.5158 669,536.5158 669,526.5158 " fill="none" style="stroke: #000000; stroke-width: 1.5;"/><text fill="#000000" font-family="Arial" font-size="14" lengthAdjust="spacingAndGlyphs" textLength="145" x="514" y="555.4818">Container Persistență</text><text fill="#000000" font-family="Arial" font-size="14" lengthAdjust="spacingAndGlyphs" textLength="116" x="514" y="574.5497">SQLite db/pax.db</text><!--MD5=[9ddfb8ef05073ca06028b0f5cfe3c611]
entity Chart--><rect fill="#FEFECE" height="39.0679" style="stroke: #A80036; stroke-width: 1.5;" width="72" x="741.5" y="389.0158"/><rect fill="#FEFECE" height="5" style="stroke: #A80036; stroke-width: 1.5;" width="10" x="736.5" y="394.0158"/><rect fill="#FEFECE" height="5" style="stroke: #A80036; stroke-width: 1.5;" width="10" x="736.5" y="418.0838"/><text fill="#000000" font-family="Arial" font-size="14" lengthAdjust="spacingAndGlyphs" textLength="52" x="751.5" y="413.9818">Chart.js</text><!--MD5=[97f66936be5f5071a17a49cbaf0ae30d]
entity Leaflet--><rect fill="#FEFECE" height="39.0679" style="stroke: #A80036; stroke-width: 1.5;" width="65" x="849" y="389.0158"/><rect fill="#FEFECE" height="5" style="stroke: #A80036; stroke-width: 1.5;" width="10" x="844" y="394.0158"/><rect fill="#FEFECE" height="5" style="stroke: #A80036; stroke-width: 1.5;" width="10" x="844" y="418.0838"/><text fill="#000000" font-family="Arial" font-size="14" lengthAdjust="spacingAndGlyphs" textLength="45" x="859" y="413.9818">Leaflet</text><!--MD5=[06ae9c4e9bcec0f944228420dac35b48]
entity PublicUser--><ellipse cx="571.5" cy="42.0158" fill="#FEFECE" rx="8" ry="8" style="stroke: #A80036; stroke-width: 1.5;"/><path d="M571.5,50.0158 L571.5,77.0158 M558.5,58.0158 L584.5,58.0158 M571.5,77.0158 L558.5,92.0158 M571.5,77.0158 L584.5,92.0158 " fill="none" style="stroke: #A80036; stroke-width: 1.5;"/><text fill="#000000" font-family="Arial" font-size="14" lengthAdjust="spacingAndGlyphs" textLength="107" x="518" y="109.4818">Utilizator public</text><!--MD5=[4bcabcf01a725d6903d664f3a7b90e27]
entity AdminUser--><ellipse cx="52.5" cy="214.5158" fill="#FEFECE" rx="8" ry="8" style="stroke: #A80036; stroke-width: 1.5;"/><path d="M52.5,222.5158 L52.5,249.5158 M39.5,230.5158 L65.5,230.5158 M52.5,249.5158 L39.5,264.5158 M52.5,249.5158 L65.5,264.5158 " fill="none" style="stroke: #A80036; stroke-width: 1.5;"/><text fill="#000000" font-family="Arial" font-size="14" lengthAdjust="spacingAndGlyphs" textLength="93" x="6" y="281.9818">Administrator</text><!--MD5=[588da66a1b9d1637518a0b679af23ed3]
entity GeoJSON--><polygon fill="#FEFECE" points="83,389.0158,83,428.0838,210,428.0838,210,399.0158,200,389.0158,83,389.0158" style="stroke: #000000; stroke-width: 1.5;"/><path d="M200,389.0158 L200,399.0158 L210,399.0158 " fill="#FEFECE" style="stroke: #000000; stroke-width: 1.5;"/><text fill="#000000" font-family="Arial" font-size="14" lengthAdjust="spacingAndGlyphs" textLength="107" x="93" y="413.9818">GeoJSON județe</text><!--MD5=[a8b4bfac8d3a0870ff1e242da316b0f2]
entity RawData--><polygon fill="#FEFECE" points="951.5,215.0158,997.5,215.0158,1004.5,236.0158,1079.5,236.0158,1079.5,276.1517,951.5,276.1517,951.5,215.0158" style="stroke: #000000; stroke-width: 1.5;"/><line style="stroke: #000000; stroke-width: 1.5;" x1="951.5" x2="1004.5" y1="236.0158" y2="236.0158"/><text fill="#000000" font-family="Arial" font-size="14" lengthAdjust="spacingAndGlyphs" textLength="98" x="961.5" y="257.9818">CSV 2020-2024</text><!--MD5=[d02bd8370c72f57aab2ef3ee4efc568f]
entity Import--><rect fill="#FEFECE" height="39.0679" style="stroke: #A80036; stroke-width: 1.5;" width="133" x="949" y="389.0158"/><rect fill="#FEFECE" height="5" style="stroke: #A80036; stroke-width: 1.5;" width="10" x="944" y="394.0158"/><rect fill="#FEFECE" height="5" style="stroke: #A80036; stroke-width: 1.5;" width="10" x="944" y="418.0838"/><text fill="#000000" font-family="Arial" font-size="14" lengthAdjust="spacingAndGlyphs" textLength="113" x="959" y="413.9818">Script import CLI</text><!--MD5=[464a0a471701f398e39c9ce5ce9c787f]
link PublicUser to Frontend--><path d="M571.5,113.5558 C571.5,143.1958 571.5,183.2958 571.5,211.2858 " fill="none" id="PublicUser-&gt;Frontend" style="stroke: #334155; stroke-width: 1.0;"/><polygon fill="#334155" points="571.5,216.3658,575.5,207.3658,571.5,211.3658,567.5,207.3658,571.5,216.3658" style="stroke: #334155; stroke-width: 1.0;"/><text fill="#000000" font-family="Arial" font-size="13" lengthAdjust="spacingAndGlyphs" textLength="154" x="572.5" y="158.4129">folosește interfața publică</text><!--MD5=[d2ff666731f81b8c374be2c615f81b23]
link AdminUser to AdminContainer--><path d="M39.58,286.3058 C36.66,303.4158 37.39,322.3458 49.5,335.0158 C63.18,349.3258 208.41,337.7858 227.5,343.0158 C253.87,350.2358 280.93,363.9558 302.76,376.8958 " fill="none" id="AdminUser-&gt;AdminContainer" style="stroke: #334155; stroke-width: 1.0;"/><polygon fill="#334155" points="307.05,379.4758,301.3787,371.4237,302.7588,376.9097,297.2728,378.2897,307.05,379.4758" style="stroke: #334155; stroke-width: 1.0;"/><text fill="#000000" font-family="Arial" font-size="13" lengthAdjust="spacingAndGlyphs" textLength="167" x="50.5" y="330.9129">autentificare și monitorizare</text><!--MD5=[d980c53fe89f7ddd8302cf9f592570b8]
link Frontend to ApiContainer--><path d="M574.11,274.5558 C576.69,302.2058 580.63,344.4858 583.37,373.9158 " fill="none" id="Frontend-&gt;ApiContainer" style="stroke: #334155; stroke-width: 1.0;"/><polygon fill="#334155" points="583.87,379.2558,587.0315,369.9282,583.4135,374.2767,579.0649,370.6587,583.87,379.2558" style="stroke: #334155; stroke-width: 1.0;"/><text fill="#000000" font-family="Arial" font-size="13" lengthAdjust="spacingAndGlyphs" textLength="94" x="579.5" y="330.9129">cereri asincrone</text><!--MD5=[4c49ffd408de7dadd4de35262cc60e90]
link Frontend to Chart--><path d="M621.05,274.5258 C640.79,286.4458 663.33,301.0458 682.5,316.0158 C709.91,337.4258 738.23,365.6358 756.74,385.0458 " fill="none" id="Frontend-&gt;Chart" style="stroke: #334155; stroke-width: 1.0;"/><polygon fill="#334155" points="760.31,388.8058,756.9987,379.5303,756.8614,385.1855,751.2062,385.0481,760.31,388.8058" style="stroke: #334155; stroke-width: 1.0;"/><text fill="#000000" font-family="Arial" font-size="13" lengthAdjust="spacingAndGlyphs" textLength="40" x="705.5" y="330.9129">grafice</text><!--MD5=[c6510319da8ea210497126d19e69209e]
link Frontend to Leaflet--><path d="M685.79,273.8758 C733.82,289.0358 788.42,311.3858 831.5,343.0158 C846.48,354.0158 859.24,370.6758 868.11,384.3058 " fill="none" id="Frontend-&gt;Leaflet" style="stroke: #334155; stroke-width: 1.0;"/><polygon fill="#334155" points="870.97,388.8058,869.5213,379.0641,868.2893,384.5852,862.7682,383.3532,870.97,388.8058" style="stroke: #334155; stroke-width: 1.0;"/><text fill="#000000" font-family="Arial" font-size="13" lengthAdjust="spacingAndGlyphs" textLength="32" x="819.5" y="330.9129">hartă</text><!--MD5=[750360a12a90e49cd4e20d8681c69f93]
link Frontend to GeoJSON--><path d="M457.3,266.8858 C388.52,281.9758 300.6,306.3558 228.5,343.0158 C206.62,354.1358 184.93,371.5658 169.35,385.4958 " fill="none" id="Frontend-&gt;GeoJSON" style="stroke: #334155; stroke-width: 1.0;"/><polygon fill="#334155" points="165.53,388.9558,174.8831,385.8705,169.2329,385.596,169.5074,379.9459,165.53,388.9558" style="stroke: #334155; stroke-width: 1.0;"/><text fill="#000000" font-family="Arial" font-size="13" lengthAdjust="spacingAndGlyphs" textLength="97" x="281.5" y="330.9129">contururi județe</text><!--MD5=[71bf889a933bd8c885f4b0d9b74f95a3]
link ApiContainer to Persistence--><path d="M586.5,437.7458 C586.5,458.9158 586.5,488.1058 586.5,511.2758 " fill="none" id="ApiContainer-&gt;Persistence" style="stroke: #334155; stroke-width: 1.0;"/><polygon fill="#334155" points="586.5,516.4258,590.5,507.4258,586.5,511.4258,582.5,507.4258,586.5,516.4258" style="stroke: #334155; stroke-width: 1.0;"/><text fill="#000000" font-family="Arial" font-size="13" lengthAdjust="spacingAndGlyphs" textLength="59" x="587.5" y="482.4129">citire date</text><!--MD5=[fe03458cd7be1f1ca64adae2303196c4]
link AdminContainer to Persistence--><path d="M367.8,437.6058 C380.13,453.7758 397.36,473.4258 416.5,486.5158 C441.28,503.4658 471.22,516.4658 499.03,526.1058 " fill="none" id="AdminContainer-&gt;Persistence" style="stroke: #334155; stroke-width: 1.0;"/><polygon fill="#334155" points="503.84,527.7458,496.615,521.0526,499.1081,526.1304,494.0303,528.6236,503.84,527.7458" style="stroke: #334155; stroke-width: 1.0;"/><text fill="#000000" font-family="Arial" font-size="13" lengthAdjust="spacingAndGlyphs" textLength="160" x="417.5" y="482.4129">rezumate admin/importuri</text><!--MD5=[b81b7ce796f00d5b76df72b0b8752af9]
link RawData to Import--><path d="M1015.5,276.0458 C1015.5,306.9858 1015.5,354.9858 1015.5,383.6258 " fill="none" id="RawData-&gt;Import" style="stroke: #334155; stroke-width: 1.0;"/><polygon fill="#334155" points="1015.5,388.7358,1019.5,379.7358,1015.5,383.7358,1011.5,379.7358,1015.5,388.7358" style="stroke: #334155; stroke-width: 1.0;"/><text fill="#000000" font-family="Arial" font-size="13" lengthAdjust="spacingAndGlyphs" textLength="58" x="1016.5" y="330.9129">surse CSV</text><!--MD5=[06b9eafc51b76e8eb8b959131147b66d]
link Import to Persistence--><path d="M981.84,428.1858 C966.49,436.2158 947.89,445.2858 930.5,452.0158 C845.45,484.9258 744.67,512.0258 674.26,529.1258 " fill="none" id="Import-&gt;Persistence" style="stroke: #334155; stroke-width: 1.0;"/><polygon fill="#334155" points="669.24,530.3458,678.927,532.1243,674.1006,529.1736,677.0513,524.3472,669.24,530.3458" style="stroke: #334155; stroke-width: 1.0;"/><text fill="#000000" font-family="Arial" font-size="13" lengthAdjust="spacingAndGlyphs" textLength="140" x="885.5" y="482.4129">populare și normalizare</text><!--MD5=[fc808f344613805b63669c40ef54eb0d]
@startuml
skinparam backgroundColor #FFFFFF
skinparam shadowing false
skinparam componentStyle rectangle
skinparam defaultFontName Arial
skinparam packageStyle rectangle
skinparam ArrowColor #334155
skinparam RectangleBorderColor #334155
skinparam RectangleBackgroundColor #F8FAFC
title PAX - C4 simplificat

actor "Utilizator public" as PublicUser
actor "Administrator" as AdminUser

rectangle "PAX Web Application" as Pax {
  rectangle "Container Frontend\nPagini PHP publice + JavaScript" as Frontend
  rectangle "Container API\nEndpointuri PHP JSON/CSV" as ApiContainer
  rectangle "Container Admin\nPagini admin + sesiune PHP" as AdminContainer
  database "Container Persistență\nSQLite db/pax.db" as Persistence
}

rectangle "Biblioteci externe" as External {
  component "Chart.js" as Chart
  component "Leaflet" as Leaflet
}

file "GeoJSON județe" as GeoJSON
folder "CSV 2020-2024" as RawData
component "Script import CLI" as Import

PublicUser - -> Frontend : folosește interfața publică
AdminUser - -> AdminContainer : autentificare și monitorizare
Frontend - -> ApiContainer : cereri asincrone
Frontend - -> Chart : grafice
Frontend - -> Leaflet : hartă
Frontend - -> GeoJSON : contururi județe
ApiContainer - -> Persistence : citire date
AdminContainer - -> Persistence : rezumate admin/importuri
RawData - -> Import : surse CSV
Import - -> Persistence : populare și normalizare

@enduml

PlantUML version 1.2020.02(Sun Mar 01 12:22:07 EET 2020)
(GPL source distribution)
Java Runtime: OpenJDK Runtime Environment
JVM: OpenJDK 64-Bit Server VM
Java Version: 21.0.10+7-LTS
Operating System: Linux
Default Encoding: UTF-8
Language: en
Country: null
--></g></svg>