<?xml version="1.0" encoding="UTF-8" standalone="no"?><svg xmlns="http://www.w3.org/2000/svg" xmlns:xlink="http://www.w3.org/1999/xlink" contentScriptType="application/ecmascript" contentStyleType="text/css" height="1050px" preserveAspectRatio="none" style="width:645px;height:1050px;" version="1.1" viewBox="0 0 645 1050" width="645px" zoomAndPan="magnify"><defs/><g><text fill="#000000" font-family="Arial" font-size="18" lengthAdjust="spacingAndGlyphs" textLength="167" x="243" y="19.2419">PAX - Fluxul datelor</text><!--MD5=[fee662a292a0353a69bd162820bae93b]
entity User--><ellipse cx="83.5" cy="639.0158" fill="#FEFECE" rx="8" ry="8" style="stroke: #A80036; stroke-width: 1.5;"/><path d="M83.5,647.0158 L83.5,674.0158 M70.5,655.0158 L96.5,655.0158 M83.5,674.0158 L70.5,689.0158 M83.5,674.0158 L96.5,689.0158 " fill="none" style="stroke: #A80036; stroke-width: 1.5;"/><text fill="#000000" font-family="Arial" font-size="14" lengthAdjust="spacingAndGlyphs" textLength="61" x="53" y="706.4818">Utilizator</text><!--MD5=[1194ee1088c4a1f787c0b58111daa5b9]
entity CSV--><polygon fill="#FEFECE" points="370,32.5158,416,32.5158,423,53.5158,487,53.5158,487,112.7196,370,112.7196,370,32.5158" style="stroke: #000000; stroke-width: 1.5;"/><line style="stroke: #000000; stroke-width: 1.5;" x1="370" x2="423" y1="53.5158" y2="53.5158"/><text fill="#000000" font-family="Arial" font-size="14" lengthAdjust="spacingAndGlyphs" textLength="87" x="380" y="75.4818">raw_data/csv</text><text fill="#000000" font-family="Arial" font-size="14" lengthAdjust="spacingAndGlyphs" textLength="69" x="380" y="94.5497">2020-2024</text><!--MD5=[d02bd8370c72f57aab2ef3ee4efc568f]
entity Import--><rect fill="#FEFECE" height="39.0679" style="stroke: #A80036; stroke-width: 1.5;" width="285" x="286" y="191.5158"/><rect fill="#FEFECE" height="5" style="stroke: #A80036; stroke-width: 1.5;" width="10" x="281" y="196.5158"/><rect fill="#FEFECE" height="5" style="stroke: #A80036; stroke-width: 1.5;" width="10" x="281" y="220.5838"/><text fill="#000000" font-family="Arial" font-size="14" lengthAdjust="spacingAndGlyphs" textLength="265" x="296" y="216.4818">scripts/import/import_csv_to_sqlite.php</text><!--MD5=[12db3e11aba055150e18d1ff3fe0a5a3]
entity Normalize--><rect fill="#FEFECE" height="77.2038" style="stroke: #A80036; stroke-width: 1.5;" width="179" x="339" y="327.5158"/><rect fill="#FEFECE" height="5" style="stroke: #A80036; stroke-width: 1.5;" width="10" x="334" y="332.5158"/><rect fill="#FEFECE" height="5" style="stroke: #A80036; stroke-width: 1.5;" width="10" x="334" y="394.7196"/><text fill="#000000" font-family="Arial" font-size="14" lengthAdjust="spacingAndGlyphs" textLength="159" x="349" y="352.4818">Curățare și normalizare</text><text fill="#000000" font-family="Arial" font-size="14" lengthAdjust="spacingAndGlyphs" textLength="124" x="349" y="371.5497">județe, lookup-uri,</text><text fill="#000000" font-family="Arial" font-size="14" lengthAdjust="spacingAndGlyphs" textLength="122" x="349" y="390.6176">validare numerică</text><!--MD5=[f9ba5bf973e7832d2ce5ed59077b93f7]
entity DB--><path d="M287,493.5158 C287,483.5158 331.5,483.5158 331.5,483.5158 C331.5,483.5158 376,483.5158 376,493.5158 L376,540.6517 C376,550.6517 331.5,550.6517 331.5,550.6517 C331.5,550.6517 287,550.6517 287,540.6517 L287,493.5158 " fill="#FEFECE" style="stroke: #000000; stroke-width: 1.5;"/><path d="M287,493.5158 C287,503.5158 331.5,503.5158 331.5,503.5158 C331.5,503.5158 376,503.5158 376,493.5158 " fill="none" style="stroke: #000000; stroke-width: 1.5;"/><text fill="#000000" font-family="Arial" font-size="14" lengthAdjust="spacingAndGlyphs" textLength="43" x="297" y="522.4818">SQLite</text><text fill="#000000" font-family="Arial" font-size="14" lengthAdjust="spacingAndGlyphs" textLength="69" x="297" y="541.5497">db/pax.db</text><!--MD5=[b9043c2a9c0284b5105a937d12c4195f]
entity Repo--><rect fill="#FEFECE" height="39.0679" style="stroke: #A80036; stroke-width: 1.5;" width="145" x="259" y="650.5158"/><rect fill="#FEFECE" height="5" style="stroke: #A80036; stroke-width: 1.5;" width="10" x="254" y="655.5158"/><rect fill="#FEFECE" height="5" style="stroke: #A80036; stroke-width: 1.5;" width="10" x="254" y="679.5838"/><text fill="#000000" font-family="Arial" font-size="14" lengthAdjust="spacingAndGlyphs" textLength="125" x="269" y="675.4818">Repository-uri PHP</text><!--MD5=[645d8587175d8f7ad110cd370775931d]
entity API--><rect fill="#FEFECE" height="58.1358" style="stroke: #A80036; stroke-width: 1.5;" width="208" x="227.5" y="817.0158"/><rect fill="#FEFECE" height="5" style="stroke: #A80036; stroke-width: 1.5;" width="10" x="222.5" y="822.0158"/><rect fill="#FEFECE" height="5" style="stroke: #A80036; stroke-width: 1.5;" width="10" x="222.5" y="865.1517"/><text fill="#000000" font-family="Arial" font-size="14" lengthAdjust="spacingAndGlyphs" textLength="144" x="237.5" y="841.9818">Endpointuri API JSON</text><text fill="#000000" font-family="Arial" font-size="14" lengthAdjust="spacingAndGlyphs" textLength="188" x="237.5" y="861.0497">filters/statistics/search/map</text><!--MD5=[ad41aca18c70598adf1be20eed337942]
entity JS--><rect fill="#FEFECE" height="58.1358" style="stroke: #A80036; stroke-width: 1.5;" width="162" x="194.5" y="981.5158"/><rect fill="#FEFECE" height="5" style="stroke: #A80036; stroke-width: 1.5;" width="10" x="189.5" y="986.5158"/><rect fill="#FEFECE" height="5" style="stroke: #A80036; stroke-width: 1.5;" width="10" x="189.5" y="1029.6517"/><text fill="#000000" font-family="Arial" font-size="14" lengthAdjust="spacingAndGlyphs" textLength="129" x="204.5" y="1006.4818">JavaScript frontend</text><text fill="#000000" font-family="Arial" font-size="14" lengthAdjust="spacingAndGlyphs" textLength="142" x="204.5" y="1025.5497">fetch + randare DOM</text><!--MD5=[c42ed81cef7fdd2e33758127945b9a5b]
entity UI--><rect fill="#FEFECE" height="77.2038" style="stroke: #A80036; stroke-width: 1.5;" width="155" x="6" y="807.5158"/><rect fill="#FEFECE" height="5" style="stroke: #A80036; stroke-width: 1.5;" width="10" x="1" y="812.5158"/><rect fill="#FEFECE" height="5" style="stroke: #A80036; stroke-width: 1.5;" width="10" x="1" y="874.7196"/><text fill="#000000" font-family="Arial" font-size="14" lengthAdjust="spacingAndGlyphs" textLength="44" x="16" y="832.4818">UI PAX</text><text fill="#000000" font-family="Arial" font-size="14" lengthAdjust="spacingAndGlyphs" textLength="123" x="16" y="851.5497">Dashboard, Hartă,</text><text fill="#000000" font-family="Arial" font-size="14" lengthAdjust="spacingAndGlyphs" textLength="135" x="16" y="870.6176">Căutare, Comparații</text><!--MD5=[588da66a1b9d1637518a0b679af23ed3]
entity GeoJSON--><polygon fill="#FEFECE" points="471,826.5158,471,865.5838,598,865.5838,598,836.5158,588,826.5158,471,826.5158" style="stroke: #000000; stroke-width: 1.5;"/><path d="M588,826.5158 L588,836.5158 L598,836.5158 " fill="#FEFECE" style="stroke: #000000; stroke-width: 1.5;"/><text fill="#000000" font-family="Arial" font-size="14" lengthAdjust="spacingAndGlyphs" textLength="107" x="481" y="851.4818">GeoJSON județe</text><!--MD5=[7bc451b37abb87a508b4d4f96d1c317c]
entity Logs--><polygon fill="#FEFECE" points="435.5,486.5158,481.5,486.5158,488.5,507.5158,615.5,507.5158,615.5,547.6517,435.5,547.6517,435.5,486.5158" style="stroke: #000000; stroke-width: 1.5;"/><line style="stroke: #000000; stroke-width: 1.5;" x1="435.5" x2="488.5" y1="507.5158" y2="507.5158"/><text fill="#000000" font-family="Arial" font-size="14" lengthAdjust="spacingAndGlyphs" textLength="150" x="445.5" y="529.4818">logs/import_errors.log</text><!--MD5=[da463055e252648a507bfe3405ee16f4]
link CSV to Import--><path d="M428.5,112.6358 C428.5,136.3558 428.5,165.8558 428.5,186.1258 " fill="none" id="CSV-&gt;Import" style="stroke: #334155; stroke-width: 1.0;"/><polygon fill="#334155" points="428.5,191.3358,432.5,182.3358,428.5,186.3358,424.5,182.3358,428.5,191.3358" style="stroke: #334155; stroke-width: 1.0;"/><text fill="#000000" font-family="Arial" font-size="13" lengthAdjust="spacingAndGlyphs" textLength="97" x="429.5" y="157.4129">fișiere CSV brute</text><!--MD5=[963cac79192b3b38ef40e212e5aab9db]
link Import to Normalize--><path d="M428.5,230.7758 C428.5,253.4058 428.5,292.1558 428.5,322.2158 " fill="none" id="Import-&gt;Normalize" style="stroke: #334155; stroke-width: 1.0;"/><polygon fill="#334155" points="428.5,327.3458,432.5,318.3458,428.5,322.3458,424.5,318.3458,428.5,327.3458" style="stroke: #334155; stroke-width: 1.0;"/><text fill="#000000" font-family="Arial" font-size="13" lengthAdjust="spacingAndGlyphs" textLength="120" x="431.5" y="275.4129">interpretare header,</text><text fill="#000000" font-family="Arial" font-size="13" lengthAdjust="spacingAndGlyphs" textLength="124" x="429.5" y="293.1189">delimitatori, câmpuri</text><!--MD5=[13749a3328a77ce54f80d7507b22afb4]
link Normalize to DB--><path d="M353.76,404.7958 C343.6,413.1758 334.59,423.0458 328.5,434.5158 C321.52,447.6558 320.77,463.7458 322.32,478.1458 " fill="none" id="Normalize-&gt;DB" style="stroke: #334155; stroke-width: 1.0;"/><polygon fill="#334155" points="322.99,483.3658,325.7993,473.9262,322.347,478.4074,317.8658,474.955,322.99,483.3658" style="stroke: #334155; stroke-width: 1.0;"/><text fill="#000000" font-family="Arial" font-size="13" lengthAdjust="spacingAndGlyphs" textLength="152" x="329.5" y="449.4129">inserare date normalizate</text><!--MD5=[a190f7e81f08feadfcb9074a1d842fa8]
link Normalize to Logs--><path d="M463.77,404.5358 C471.75,413.9558 479.83,424.2958 486.5,434.5158 C496.05,449.1558 504.67,466.4858 511.37,481.3958 " fill="none" id="Normalize-&gt;Logs" style="stroke: #334155; stroke-width: 1.0;"/><polygon fill="#334155" points="513.56,486.3458,513.5657,476.497,511.532,481.7756,506.2533,479.7419,513.56,486.3458" style="stroke: #334155; stroke-width: 1.0;"/><text fill="#000000" font-family="Arial" font-size="13" lengthAdjust="spacingAndGlyphs" textLength="136" x="497.5" y="449.4129">rânduri respinse / erori</text><!--MD5=[8ed04b60f53953e8ced029b9e7c20889]
link DB to Repo--><path d="M331.5,550.7758 C331.5,579.1258 331.5,619.4458 331.5,644.9158 " fill="none" id="DB-&gt;Repo" style="stroke: #334155; stroke-width: 1.0;"/><polygon fill="#334155" points="331.5,650.1158,335.5,641.1158,331.5,645.1158,327.5,641.1158,331.5,650.1158" style="stroke: #334155; stroke-width: 1.0;"/><text fill="#000000" font-family="Arial" font-size="13" lengthAdjust="spacingAndGlyphs" textLength="97" x="332.5" y="595.4129">date persistente</text><!--MD5=[87ef97df6cb39a209808f71720364362]
link Repo to API--><path d="M331.5,689.6358 C331.5,718.7158 331.5,775.3258 331.5,811.5958 " fill="none" id="Repo-&gt;API" style="stroke: #334155; stroke-width: 1.0;"/><polygon fill="#334155" points="331.5,816.7958,335.5,807.7958,331.5,811.7958,327.5,807.7958,331.5,816.7958" style="stroke: #334155; stroke-width: 1.0;"/><text fill="#000000" font-family="Arial" font-size="13" lengthAdjust="spacingAndGlyphs" textLength="80" x="332.5" y="764.4129">rezultate SQL</text><!--MD5=[d40b763a74ad43039e689c917aabb1a0]
link API to JS--><path d="M331.85,875.0358 C331.22,896.6458 328.35,926.9058 318.5,951.5158 C314.92,960.4458 309.62,969.2458 303.96,977.1758 " fill="none" id="API-&gt;JS" style="stroke: #334155; stroke-width: 1.0;"/><polygon fill="#334155" points="300.78,981.4858,309.3414,976.6173,303.7479,977.462,302.9032,971.8686,300.78,981.4858" style="stroke: #334155; stroke-width: 1.0;"/><text fill="#000000" font-family="Arial" font-size="13" lengthAdjust="spacingAndGlyphs" textLength="109" x="328.5" y="938.4129">JSON standardizat</text><!--MD5=[0a7df09cfb00c46e72dd8e720b309f2f]
link GeoJSON to JS--><path d="M523.43,865.5558 C508.66,888.7958 480.39,928.3858 446.5,951.5158 C421.17,968.8058 390.22,981.3558 361.65,990.2558 " fill="none" id="GeoJSON-&gt;JS" style="stroke: #334155; stroke-width: 1.0;"/><polygon fill="#334155" points="356.72,991.7658,366.4949,992.9709,361.5032,990.3095,364.1647,985.3178,356.72,991.7658" style="stroke: #334155; stroke-width: 1.0;"/><text fill="#000000" font-family="Arial" font-size="13" lengthAdjust="spacingAndGlyphs" textLength="103" x="485.5" y="938.4129">geometrie județe</text><!--MD5=[15cfe9b31d48a198717ff1d7bfaf52dd]
link JS to UI--><path d="M227.64,981.3858 C214.11,972.5358 199.74,962.2558 187.5,951.5158 C171.16,937.1758 170.56,930.1958 155.5,914.5158 C147.19,905.8658 138.04,896.8958 129.13,888.4358 " fill="none" id="JS-&gt;UI" style="stroke: #334155; stroke-width: 1.0;"/><polygon fill="#334155" points="125.34,884.8458,129.1523,893.9269,128.981,888.2727,134.6353,888.1013,125.34,884.8458" style="stroke: #334155; stroke-width: 1.0;"/><text fill="#000000" font-family="Arial" font-size="13" lengthAdjust="spacingAndGlyphs" textLength="112" x="193" y="929.4129">actualizare carduri,</text><text fill="#000000" font-family="Arial" font-size="13" lengthAdjust="spacingAndGlyphs" textLength="121" x="188.5" y="947.1189">grafice, hartă, tabele</text><!--MD5=[02eb6713532a22dfe4bd3986a3ed84d4]
link UI to JS--><path d="M36.76,884.7158 C16.93,905.2558 1.82,930.6558 18.5,951.5158 C39.76,978.1058 123.21,993.3858 189.32,1001.5158 " fill="none" id="UI-&gt;JS" style="stroke: #334155; stroke-width: 1.0;"/><polygon fill="#334155" points="194.45,1002.1358,185.9941,997.0863,189.486,1001.5367,185.0356,1005.0286,194.45,1002.1358" style="stroke: #334155; stroke-width: 1.0;"/><text fill="#000000" font-family="Arial" font-size="13" lengthAdjust="spacingAndGlyphs" textLength="127" x="19.5" y="938.4129">evenimente utilizator</text><!--MD5=[48af56c9a0e5a8a77220d910b4b4e159]
link User to UI--><path d="M83.5,710.9358 C83.5,738.2358 83.5,774.3758 83.5,802.2658 " fill="none" id="User-&gt;UI" style="stroke: #334155; stroke-width: 1.0;"/><polygon fill="#334155" points="83.5,807.3658,87.5,798.3658,83.5,802.3658,79.5,798.3658,83.5,807.3658" style="stroke: #334155; stroke-width: 1.0;"/><text fill="#000000" font-family="Arial" font-size="13" lengthAdjust="spacingAndGlyphs" textLength="110" x="91" y="755.4129">filtre, click, sortare,</text><text fill="#000000" font-family="Arial" font-size="13" lengthAdjust="spacingAndGlyphs" textLength="123" x="84.5" y="773.1189">paginare, comparații</text><!--MD5=[b48f8f0c5e0ba0c86e7ff464adef3920]
@startuml
skinparam backgroundColor #FFFFFF
skinparam shadowing false
skinparam componentStyle rectangle
skinparam defaultFontName Arial
skinparam packageStyle rectangle
skinparam ArrowColor #334155
title PAX - Fluxul datelor

actor "Utilizator" as User
folder "raw_data/csv\n2020-2024" as CSV
component "scripts/import/import_csv_to_sqlite.php" as Import
component "Curățare și normalizare\njudețe, lookup-uri,\nvalidare numerică" as Normalize
database "SQLite\n db/pax.db" as DB
component "Repository-uri PHP" as Repo
component "Endpointuri API JSON\nfilters/statistics/search/map" as API
component "JavaScript frontend\nfetch + randare DOM" as JS
component "UI PAX\nDashboard, Hartă,\nCăutare, Comparații" as UI
file "GeoJSON județe" as GeoJSON
folder "logs/import_errors.log" as Logs

CSV - -> Import : fișiere CSV brute
Import - -> Normalize : interpretare header,\ndelimitatori, câmpuri
Normalize - -> DB : inserare date normalizate
Normalize - -> Logs : rânduri respinse / erori
DB - -> Repo : date persistente
Repo - -> API : rezultate SQL
API - -> JS : JSON standardizat
GeoJSON - -> JS : geometrie județe
JS - -> UI : actualizare carduri,\ngrafice, hartă, tabele
User - -> UI : filtre, click, sortare,\npaginare, comparații
UI - -> JS : evenimente utilizator

@enduml

PlantUML version 1.2020.02(Sun Mar 01 12:22:07 EET 2020)
(GPL source distribution)
Java Runtime: OpenJDK Runtime Environment
JVM: OpenJDK 64-Bit Server VM
Java Version: 21.0.10+7-LTS
Operating System: Linux
Default Encoding: UTF-8
Language: en
Country: null
--></g></svg>