<?xml version="1.0" encoding="UTF-8" standalone="no"?><svg xmlns="http://www.w3.org/2000/svg" xmlns:xlink="http://www.w3.org/1999/xlink" contentScriptType="application/ecmascript" contentStyleType="text/css" height="473px" preserveAspectRatio="none" style="width:1294px;height:473px;" version="1.1" viewBox="0 0 1294 473" width="1294px" zoomAndPan="magnify"><defs/><g><text fill="#000000" font-family="Arial" font-size="18" lengthAdjust="spacingAndGlyphs" textLength="237" x="532" y="19.2419">PAX - Modelul bazei de date</text><!--MD5=[17b0cc109751fd350f631700db1b1bb6]
class counties--><rect fill="#FEFECE" height="92.9457" id="counties" style="stroke: #A80036; stroke-width: 1.5;" width="132" x="6" y="62.5158"/><ellipse cx="44.85" cy="78.5158" fill="#ADD1B2" rx="11" ry="11" style="stroke: #A80036; stroke-width: 1.0;"/><path d="M48.9594,84.5158 L41.2406,84.5158 L41.2406,72.1252 L48.9594,72.1252 L48.9594,74.2815 L43.6938,74.2815 L43.6938,76.9533 L48.4594,76.9533 L48.4594,79.1096 L43.6938,79.1096 L43.6938,82.3596 L48.9594,82.3596 L48.9594,84.5158 Z "/><text fill="#000000" font-family="Arial" font-size="12" lengthAdjust="spacingAndGlyphs" textLength="47" x="64.15" y="83.1719">counties</text><line style="stroke: #A80036; stroke-width: 1.5;" x1="7" x2="137" y1="94.5158" y2="94.5158"/><ellipse cx="17" cy="105.5158" fill="#000000" rx="3" ry="3" style="stroke: #000000; stroke-width: 1.0;"/><text fill="#000000" font-family="Arial" font-size="11" lengthAdjust="spacingAndGlyphs" textLength="93" x="26" y="110.2748">id : INTEGER «PK»</text><line style="stroke: #A80036; stroke-width: 1.0;" x1="7" x2="137" y1="117.4977" y2="117.4977"/><text fill="#000000" font-family="Arial" font-size="11" lengthAdjust="spacingAndGlyphs" textLength="116" x="12" y="133.2566">code : TEXT «UNIQUE»</text><text fill="#000000" font-family="Arial" font-size="11" lengthAdjust="spacingAndGlyphs" textLength="120" x="12" y="148.2385">name : TEXT «UNIQUE»</text><!--MD5=[b6e5b78505402b8936b633759b504e0c]
class vehicle_categories--><rect fill="#FEFECE" height="77.9638" id="vehicle_categories" style="stroke: #A80036; stroke-width: 1.5;" width="135" x="173.5" y="70.0158"/><ellipse cx="188.5" cy="86.0158" fill="#ADD1B2" rx="11" ry="11" style="stroke: #A80036; stroke-width: 1.0;"/><path d="M192.6094,92.0158 L184.8906,92.0158 L184.8906,79.6252 L192.6094,79.6252 L192.6094,81.7815 L187.3438,81.7815 L187.3438,84.4533 L192.1094,84.4533 L192.1094,86.6096 L187.3438,86.6096 L187.3438,89.8596 L192.6094,89.8596 L192.6094,92.0158 Z "/><text fill="#000000" font-family="Arial" font-size="12" lengthAdjust="spacingAndGlyphs" textLength="103" x="202.5" y="90.6719">vehicle_categories</text><line style="stroke: #A80036; stroke-width: 1.5;" x1="174.5" x2="307.5" y1="102.0158" y2="102.0158"/><ellipse cx="184.5" cy="113.0158" fill="#000000" rx="3" ry="3" style="stroke: #000000; stroke-width: 1.0;"/><text fill="#000000" font-family="Arial" font-size="11" lengthAdjust="spacingAndGlyphs" textLength="93" x="193.5" y="117.7748">id : INTEGER «PK»</text><line style="stroke: #A80036; stroke-width: 1.0;" x1="174.5" x2="307.5" y1="124.9977" y2="124.9977"/><text fill="#000000" font-family="Arial" font-size="11" lengthAdjust="spacingAndGlyphs" textLength="120" x="179.5" y="140.7566">name : TEXT «UNIQUE»</text><!--MD5=[1f333399381f08743c76d560e1f48e0a]
class community_categories--><rect fill="#FEFECE" height="77.9638" id="community_categories" style="stroke: #A80036; stroke-width: 1.5;" width="158" x="344" y="70.0158"/><ellipse cx="359" cy="86.0158" fill="#ADD1B2" rx="11" ry="11" style="stroke: #A80036; stroke-width: 1.0;"/><path d="M363.1094,92.0158 L355.3906,92.0158 L355.3906,79.6252 L363.1094,79.6252 L363.1094,81.7815 L357.8438,81.7815 L357.8438,84.4533 L362.6094,84.4533 L362.6094,86.6096 L357.8438,86.6096 L357.8438,89.8596 L363.1094,89.8596 L363.1094,92.0158 Z "/><text fill="#000000" font-family="Arial" font-size="12" lengthAdjust="spacingAndGlyphs" textLength="126" x="373" y="90.6719">community_categories</text><line style="stroke: #A80036; stroke-width: 1.5;" x1="345" x2="501" y1="102.0158" y2="102.0158"/><ellipse cx="355" cy="113.0158" fill="#000000" rx="3" ry="3" style="stroke: #000000; stroke-width: 1.0;"/><text fill="#000000" font-family="Arial" font-size="11" lengthAdjust="spacingAndGlyphs" textLength="93" x="364" y="117.7748">id : INTEGER «PK»</text><line style="stroke: #A80036; stroke-width: 1.0;" x1="345" x2="501" y1="124.9977" y2="124.9977"/><text fill="#000000" font-family="Arial" font-size="11" lengthAdjust="spacingAndGlyphs" textLength="120" x="350" y="140.7566">name : TEXT «UNIQUE»</text><!--MD5=[2a87d89af07f949a1507df84e9d7daac]
class fuel_types--><rect fill="#FEFECE" height="77.9638" id="fuel_types" style="stroke: #A80036; stroke-width: 1.5;" width="132" x="537" y="70.0158"/><ellipse cx="571.8" cy="86.0158" fill="#ADD1B2" rx="11" ry="11" style="stroke: #A80036; stroke-width: 1.0;"/><path d="M575.9094,92.0158 L568.1906,92.0158 L568.1906,79.6252 L575.9094,79.6252 L575.9094,81.7815 L570.6438,81.7815 L570.6438,84.4533 L575.4094,84.4533 L575.4094,86.6096 L570.6438,86.6096 L570.6438,89.8596 L575.9094,89.8596 L575.9094,92.0158 Z "/><text fill="#000000" font-family="Arial" font-size="12" lengthAdjust="spacingAndGlyphs" textLength="56" x="590.2" y="90.6719">fuel_types</text><line style="stroke: #A80036; stroke-width: 1.5;" x1="538" x2="668" y1="102.0158" y2="102.0158"/><ellipse cx="548" cy="113.0158" fill="#000000" rx="3" ry="3" style="stroke: #000000; stroke-width: 1.0;"/><text fill="#000000" font-family="Arial" font-size="11" lengthAdjust="spacingAndGlyphs" textLength="93" x="557" y="117.7748">id : INTEGER «PK»</text><line style="stroke: #A80036; stroke-width: 1.0;" x1="538" x2="668" y1="124.9977" y2="124.9977"/><text fill="#000000" font-family="Arial" font-size="11" lengthAdjust="spacingAndGlyphs" textLength="120" x="543" y="140.7566">name : TEXT «UNIQUE»</text><!--MD5=[a43e568d424db514e1fbe630c35fe8b9]
class brands--><rect fill="#FEFECE" height="77.9638" id="brands" style="stroke: #A80036; stroke-width: 1.5;" width="132" x="704" y="70.0158"/><ellipse cx="746.45" cy="86.0158" fill="#ADD1B2" rx="11" ry="11" style="stroke: #A80036; stroke-width: 1.0;"/><path d="M750.5594,92.0158 L742.8406,92.0158 L742.8406,79.6252 L750.5594,79.6252 L750.5594,81.7815 L745.2938,81.7815 L745.2938,84.4533 L750.0594,84.4533 L750.0594,86.6096 L745.2938,86.6096 L745.2938,89.8596 L750.5594,89.8596 L750.5594,92.0158 Z "/><text fill="#000000" font-family="Arial" font-size="12" lengthAdjust="spacingAndGlyphs" textLength="39" x="766.55" y="90.6719">brands</text><line style="stroke: #A80036; stroke-width: 1.5;" x1="705" x2="835" y1="102.0158" y2="102.0158"/><ellipse cx="715" cy="113.0158" fill="#000000" rx="3" ry="3" style="stroke: #000000; stroke-width: 1.0;"/><text fill="#000000" font-family="Arial" font-size="11" lengthAdjust="spacingAndGlyphs" textLength="93" x="724" y="117.7748">id : INTEGER «PK»</text><line style="stroke: #A80036; stroke-width: 1.0;" x1="705" x2="835" y1="124.9977" y2="124.9977"/><text fill="#000000" font-family="Arial" font-size="11" lengthAdjust="spacingAndGlyphs" textLength="120" x="710" y="140.7566">name : TEXT «UNIQUE»</text><!--MD5=[95279af63e9adcbe6d927baf9d2ed0e0]
class import_batches--><rect fill="#FEFECE" height="152.8732" id="import_batches" style="stroke: #A80036; stroke-width: 1.5;" width="140" x="871" y="32.5158"/><ellipse cx="895.9" cy="48.5158" fill="#ADD1B2" rx="11" ry="11" style="stroke: #A80036; stroke-width: 1.0;"/><path d="M900.0094,54.5158 L892.2906,54.5158 L892.2906,42.1252 L900.0094,42.1252 L900.0094,44.2815 L894.7438,44.2815 L894.7438,46.9533 L899.5094,46.9533 L899.5094,49.1096 L894.7438,49.1096 L894.7438,52.3596 L900.0094,52.3596 L900.0094,54.5158 Z "/><text fill="#000000" font-family="Arial" font-size="12" lengthAdjust="spacingAndGlyphs" textLength="86" x="912.1" y="53.1719">import_batches</text><line style="stroke: #A80036; stroke-width: 1.5;" x1="872" x2="1010" y1="64.5158" y2="64.5158"/><ellipse cx="882" cy="75.5158" fill="#000000" rx="3" ry="3" style="stroke: #000000; stroke-width: 1.0;"/><text fill="#000000" font-family="Arial" font-size="11" lengthAdjust="spacingAndGlyphs" textLength="93" x="891" y="80.2748">id : INTEGER «PK»</text><line style="stroke: #A80036; stroke-width: 1.0;" x1="872" x2="1010" y1="87.4977" y2="87.4977"/><text fill="#000000" font-family="Arial" font-size="11" lengthAdjust="spacingAndGlyphs" textLength="117" x="877" y="103.2566">source_year : INTEGER</text><text fill="#000000" font-family="Arial" font-size="11" lengthAdjust="spacingAndGlyphs" textLength="89" x="877" y="118.2385">source_file : TEXT</text><text fill="#000000" font-family="Arial" font-size="11" lengthAdjust="spacingAndGlyphs" textLength="97" x="877" y="133.2204">imported_at : TEXT</text><text fill="#000000" font-family="Arial" font-size="11" lengthAdjust="spacingAndGlyphs" textLength="128" x="877" y="148.2023">rows_inserted : INTEGER</text><text fill="#000000" font-family="Arial" font-size="11" lengthAdjust="spacingAndGlyphs" textLength="127" x="877" y="163.1842">rows_rejected : INTEGER</text><text fill="#000000" font-family="Arial" font-size="11" lengthAdjust="spacingAndGlyphs" textLength="62" x="877" y="178.1661">notes : TEXT</text><!--MD5=[ad83b271a6706e118936fad16b3b27ca]
class admins--><rect fill="#FEFECE" height="107.9276" id="admins" style="stroke: #A80036; stroke-width: 1.5;" width="155" x="1046.5" y="55.0158"/><ellipse cx="1099.25" cy="71.0158" fill="#ADD1B2" rx="11" ry="11" style="stroke: #A80036; stroke-width: 1.0;"/><path d="M1103.3594,77.0158 L1095.6406,77.0158 L1095.6406,64.6252 L1103.3594,64.6252 L1103.3594,66.7815 L1098.0938,66.7815 L1098.0938,69.4533 L1102.8594,69.4533 L1102.8594,71.6096 L1098.0938,71.6096 L1098.0938,74.8596 L1103.3594,74.8596 L1103.3594,77.0158 Z "/><text fill="#000000" font-family="Arial" font-size="12" lengthAdjust="spacingAndGlyphs" textLength="41" x="1119.75" y="75.6719">admins</text><line style="stroke: #A80036; stroke-width: 1.5;" x1="1047.5" x2="1200.5" y1="87.0158" y2="87.0158"/><ellipse cx="1057.5" cy="98.0158" fill="#000000" rx="3" ry="3" style="stroke: #000000; stroke-width: 1.0;"/><text fill="#000000" font-family="Arial" font-size="11" lengthAdjust="spacingAndGlyphs" textLength="93" x="1066.5" y="102.7748">id : INTEGER «PK»</text><line style="stroke: #A80036; stroke-width: 1.0;" x1="1047.5" x2="1200.5" y1="109.9977" y2="109.9977"/><text fill="#000000" font-family="Arial" font-size="11" lengthAdjust="spacingAndGlyphs" textLength="143" x="1052.5" y="125.7566">username : TEXT «UNIQUE»</text><text fill="#000000" font-family="Arial" font-size="11" lengthAdjust="spacingAndGlyphs" textLength="114" x="1052.5" y="140.7385">password_hash : TEXT</text><text fill="#000000" font-family="Arial" font-size="11" lengthAdjust="spacingAndGlyphs" textLength="87" x="1052.5" y="155.7204">created_at : TEXT</text><!--MD5=[260a3d75fa51d6e1623d4543c51b513a]
class vehicle_records--><rect fill="#FEFECE" height="197.8189" id="vehicle_records" style="stroke: #A80036; stroke-width: 1.5;" width="264" x="478" y="264.5158"/><ellipse cx="562.25" cy="280.5158" fill="#ADD1B2" rx="11" ry="11" style="stroke: #A80036; stroke-width: 1.0;"/><path d="M566.3594,286.5158 L558.6406,286.5158 L558.6406,274.1252 L566.3594,274.1252 L566.3594,276.2815 L561.0938,276.2815 L561.0938,278.9533 L565.8594,278.9533 L565.8594,281.1096 L561.0938,281.1096 L561.0938,284.3596 L566.3594,284.3596 L566.3594,286.5158 Z "/><text fill="#000000" font-family="Arial" font-size="12" lengthAdjust="spacingAndGlyphs" textLength="87" x="582.75" y="285.1719">vehicle_records</text><line style="stroke: #A80036; stroke-width: 1.5;" x1="479" x2="741" y1="296.5158" y2="296.5158"/><ellipse cx="489" cy="307.5158" fill="#000000" rx="3" ry="3" style="stroke: #000000; stroke-width: 1.0;"/><text fill="#000000" font-family="Arial" font-size="11" lengthAdjust="spacingAndGlyphs" textLength="93" x="498" y="312.2748">id : INTEGER «PK»</text><line style="stroke: #A80036; stroke-width: 1.0;" x1="479" x2="741" y1="319.4977" y2="319.4977"/><text fill="#000000" font-family="Arial" font-size="11" lengthAdjust="spacingAndGlyphs" textLength="77" x="484" y="335.2566">year : INTEGER</text><text fill="#000000" font-family="Arial" font-size="11" lengthAdjust="spacingAndGlyphs" textLength="133" x="484" y="350.2385">county_id : INTEGER «FK»</text><text fill="#000000" font-family="Arial" font-size="11" lengthAdjust="spacingAndGlyphs" textLength="191" x="484" y="365.2204">national_category_id : INTEGER «FK»</text><text fill="#000000" font-family="Arial" font-size="11" lengthAdjust="spacingAndGlyphs" textLength="252" x="484" y="380.2023">community_category_id : INTEGER «FK nullable»</text><text fill="#000000" font-family="Arial" font-size="11" lengthAdjust="spacingAndGlyphs" textLength="174" x="484" y="395.1842">brand_id : INTEGER «FK nullable»</text><text fill="#000000" font-family="Arial" font-size="11" lengthAdjust="spacingAndGlyphs" textLength="130" x="484" y="410.1661">model_description : TEXT</text><text fill="#000000" font-family="Arial" font-size="11" lengthAdjust="spacingAndGlyphs" textLength="145" x="484" y="425.148">fuel_type_id : INTEGER «FK»</text><text fill="#000000" font-family="Arial" font-size="11" lengthAdjust="spacingAndGlyphs" textLength="125" x="484" y="440.1299">vehicle_count : INTEGER</text><text fill="#000000" font-family="Arial" font-size="11" lengthAdjust="spacingAndGlyphs" textLength="212" x="484" y="455.1117">import_batch_id : INTEGER «FK nullable»</text><!--MD5=[2bf47c123a41de46274a9ea60e93b3ff]
link counties to vehicle_records--><path d="M146.06,152.5158 C146.06,152.5158 486,152.5158 486,152.5158 C486,152.5158 486,256.5058 486,256.5058 " fill="none" id="counties-vehicle_records" style="stroke: #334155; stroke-width: 1.0;"/><line style="stroke: #334155; stroke-width: 1.0;" x1="486" x2="492" y1="256.5058" y2="264.5058"/><line style="stroke: #334155; stroke-width: 1.0;" x1="486" x2="480" y1="256.5058" y2="264.5058"/><line style="stroke: #334155; stroke-width: 1.0;" x1="486" x2="486" y1="256.5058" y2="264.5058"/><ellipse cx="486" cy="250.5058" fill="none" rx="4" ry="4" style="stroke: #334155; stroke-width: 1.0;"/><line style="stroke: #334155; stroke-width: 1.0;" x1="142.06" x2="142.06" y1="156.5158" y2="148.5158"/><line style="stroke: #334155; stroke-width: 1.0;" x1="145.06" x2="145.06" y1="156.5158" y2="148.5158"/><line style="stroke: #334155; stroke-width: 1.0;" x1="146.06" x2="138.06" y1="152.5158" y2="152.5158"/><text fill="#000000" font-family="Arial" font-size="13" lengthAdjust="spacingAndGlyphs" textLength="59" x="73" y="230.4129">county_id</text><!--MD5=[8c859dfd855ab621b596f0384b705537]
link vehicle_categories to vehicle_records--><path d="M241,156.2258 C241,156.2258 241,363.5158 241,363.5158 C241,363.5158 469.82,363.5158 469.82,363.5158 " fill="none" id="vehicle_categories-vehicle_records" style="stroke: #334155; stroke-width: 1.0;"/><line style="stroke: #334155; stroke-width: 1.0;" x1="469.82" x2="477.82" y1="363.5158" y2="357.5158"/><line style="stroke: #334155; stroke-width: 1.0;" x1="469.82" x2="477.82" y1="363.5158" y2="369.5158"/><line style="stroke: #334155; stroke-width: 1.0;" x1="469.82" x2="477.82" y1="363.5158" y2="363.5158"/><ellipse cx="463.82" cy="363.5158" fill="none" rx="4" ry="4" style="stroke: #334155; stroke-width: 1.0;"/><line style="stroke: #334155; stroke-width: 1.0;" x1="237" x2="245" y1="152.2258" y2="152.2258"/><line style="stroke: #334155; stroke-width: 1.0;" x1="237" x2="245" y1="155.2258" y2="155.2258"/><line style="stroke: #334155; stroke-width: 1.0;" x1="241" x2="241" y1="156.2258" y2="148.2258"/><text fill="#000000" font-family="Arial" font-size="13" lengthAdjust="spacingAndGlyphs" textLength="125" x="242" y="230.4129">national_category_id</text><!--MD5=[8a55e845e7860c0272451b763c7ab123]
link community_categories to vehicle_records--><path d="M494,156.2258 C494,156.2258 494,256.3458 494,256.3458 " fill="none" id="community_categories-vehicle_records" style="stroke: #334155; stroke-width: 1.0;"/><line style="stroke: #334155; stroke-width: 1.0;" x1="494" x2="500" y1="256.3458" y2="264.3458"/><line style="stroke: #334155; stroke-width: 1.0;" x1="494" x2="488" y1="256.3458" y2="264.3458"/><line style="stroke: #334155; stroke-width: 1.0;" x1="494" x2="494" y1="256.3458" y2="264.3458"/><ellipse cx="494" cy="250.3458" fill="none" rx="4" ry="4" style="stroke: #334155; stroke-width: 1.0;"/><line style="stroke: #334155; stroke-width: 1.0;" x1="490" x2="498" y1="152.2258" y2="152.2258"/><line style="stroke: #334155; stroke-width: 1.0;" x1="490" x2="498" y1="155.2258" y2="155.2258"/><line style="stroke: #334155; stroke-width: 1.0;" x1="494" x2="494" y1="156.2258" y2="148.2258"/><text fill="#000000" font-family="Arial" font-size="13" lengthAdjust="spacingAndGlyphs" textLength="145" x="424" y="230.4129">community_category_id</text><!--MD5=[64bc1dafc50d8d0a5fb60e24204a3f69]
link brands to vehicle_records--><path d="M716.67,156.2258 C716.67,156.2258 716.67,256.3458 716.67,256.3458 " fill="none" id="brands-vehicle_records" style="stroke: #334155; stroke-width: 1.0;"/><line style="stroke: #334155; stroke-width: 1.0;" x1="716.67" x2="722.67" y1="256.3458" y2="264.3458"/><line style="stroke: #334155; stroke-width: 1.0;" x1="716.67" x2="710.67" y1="256.3458" y2="264.3458"/><line style="stroke: #334155; stroke-width: 1.0;" x1="716.67" x2="716.67" y1="256.3458" y2="264.3458"/><ellipse cx="716.67" cy="250.3458" fill="none" rx="4" ry="4" style="stroke: #334155; stroke-width: 1.0;"/><line style="stroke: #334155; stroke-width: 1.0;" x1="712.67" x2="720.67" y1="152.2258" y2="152.2258"/><line style="stroke: #334155; stroke-width: 1.0;" x1="712.67" x2="720.67" y1="155.2258" y2="155.2258"/><line style="stroke: #334155; stroke-width: 1.0;" x1="716.67" x2="716.67" y1="156.2258" y2="148.2258"/><text fill="#000000" font-family="Arial" font-size="13" lengthAdjust="spacingAndGlyphs" textLength="53" x="771" y="230.4129">brand_id</text><!--MD5=[1cf019f9964cded55b0e9f09cfc2e3c1]
link fuel_types to vehicle_records--><path d="M603,156.2258 C603,156.2258 603,256.3458 603,256.3458 " fill="none" id="fuel_types-vehicle_records" style="stroke: #334155; stroke-width: 1.0;"/><line style="stroke: #334155; stroke-width: 1.0;" x1="603" x2="609" y1="256.3458" y2="264.3458"/><line style="stroke: #334155; stroke-width: 1.0;" x1="603" x2="597" y1="256.3458" y2="264.3458"/><line style="stroke: #334155; stroke-width: 1.0;" x1="603" x2="603" y1="256.3458" y2="264.3458"/><ellipse cx="603" cy="250.3458" fill="none" rx="4" ry="4" style="stroke: #334155; stroke-width: 1.0;"/><line style="stroke: #334155; stroke-width: 1.0;" x1="599" x2="607" y1="152.2258" y2="152.2258"/><line style="stroke: #334155; stroke-width: 1.0;" x1="599" x2="607" y1="155.2258" y2="155.2258"/><line style="stroke: #334155; stroke-width: 1.0;" x1="603" x2="603" y1="156.2258" y2="148.2258"/><text fill="#000000" font-family="Arial" font-size="13" lengthAdjust="spacingAndGlyphs" textLength="72" x="611" y="230.4129">fuel_type_id</text><!--MD5=[fea07f167156a8dc09838f4c2726ab68]
link import_batches to vehicle_records--><path d="M862.81,170.5158 C862.81,170.5158 729.33,170.5158 729.33,170.5158 C729.33,170.5158 729.33,256.4758 729.33,256.4758 " fill="none" id="import_batches-vehicle_records" style="stroke: #334155; stroke-width: 1.0;"/><line style="stroke: #334155; stroke-width: 1.0;" x1="729.33" x2="735.33" y1="256.4758" y2="264.4758"/><line style="stroke: #334155; stroke-width: 1.0;" x1="729.33" x2="723.33" y1="256.4758" y2="264.4758"/><line style="stroke: #334155; stroke-width: 1.0;" x1="729.33" x2="729.33" y1="256.4758" y2="264.4758"/><ellipse cx="729.33" cy="250.4758" fill="none" rx="4" ry="4" style="stroke: #334155; stroke-width: 1.0;"/><line style="stroke: #334155; stroke-width: 1.0;" x1="866.81" x2="866.81" y1="166.5158" y2="174.5158"/><line style="stroke: #334155; stroke-width: 1.0;" x1="863.81" x2="863.81" y1="166.5158" y2="174.5158"/><line style="stroke: #334155; stroke-width: 1.0;" x1="862.81" x2="870.81" y1="170.5158" y2="170.5158"/><text fill="#000000" font-family="Arial" font-size="13" lengthAdjust="spacingAndGlyphs" textLength="98" x="942" y="230.4129">import_batch_id</text><!--MD5=[e4e69464d7e757a6b943c72eb04182b9]
link admins to vehicle_records--><path d="M1124,163.2958 C1124,238.0458 1124,363.5158 1124,363.5158 C1124,363.5158 894.33,363.5158 742.03,363.5158 " fill="none" id="admins-vehicle_records" style="stroke: #334155; stroke-width: 1.0; stroke-dasharray: 7.0,7.0;"/><text fill="#000000" font-family="Arial" font-size="13" lengthAdjust="spacingAndGlyphs" textLength="157" x="1125" y="230.4129">separat în schema curentă</text><!--MD5=[11fe67e9702cd6744b237944cefd5fb9]
@startuml
skinparam backgroundColor #FFFFFF
skinparam shadowing false
skinparam defaultFontName Arial
skinparam linetype ortho
skinparam ArrowColor #334155
title PAX - Modelul bazei de date

entity "counties" as counties {
  * id : INTEGER <<PK>>
  - -
  code : TEXT <<UNIQUE>>
  name : TEXT <<UNIQUE>>
}

entity "vehicle_categories" as vehicle_categories {
  * id : INTEGER <<PK>>
  - -
  name : TEXT <<UNIQUE>>
}

entity "community_categories" as community_categories {
  * id : INTEGER <<PK>>
  - -
  name : TEXT <<UNIQUE>>
}

entity "fuel_types" as fuel_types {
  * id : INTEGER <<PK>>
  - -
  name : TEXT <<UNIQUE>>
}

entity "brands" as brands {
  * id : INTEGER <<PK>>
  - -
  name : TEXT <<UNIQUE>>
}

entity "import_batches" as import_batches {
  * id : INTEGER <<PK>>
  - -
  source_year : INTEGER
  source_file : TEXT
  imported_at : TEXT
  rows_inserted : INTEGER
  rows_rejected : INTEGER
  notes : TEXT
}

entity "admins" as admins {
  * id : INTEGER <<PK>>
  - -
  username : TEXT <<UNIQUE>>
  password_hash : TEXT
  created_at : TEXT
}

entity "vehicle_records" as vehicle_records {
  * id : INTEGER <<PK>>
  - -
  year : INTEGER
  county_id : INTEGER <<FK>>
  national_category_id : INTEGER <<FK>>
  community_category_id : INTEGER <<FK nullable>>
  brand_id : INTEGER <<FK nullable>>
  model_description : TEXT
  fuel_type_id : INTEGER <<FK>>
  vehicle_count : INTEGER
  import_batch_id : INTEGER <<FK nullable>>
}

counties ||- -o{ vehicle_records : county_id
vehicle_categories ||- -o{ vehicle_records : national_category_id
community_categories ||- -o{ vehicle_records : community_category_id
brands ||- -o{ vehicle_records : brand_id
fuel_types ||- -o{ vehicle_records : fuel_type_id
import_batches ||- -o{ vehicle_records : import_batch_id
admins .. vehicle_records : separat în schema curentă

@enduml

PlantUML version 1.2020.02(Sun Mar 01 12:22:07 EET 2020)
(GPL source distribution)
Java Runtime: OpenJDK Runtime Environment
JVM: OpenJDK 64-Bit Server VM
Java Version: 21.0.10+7-LTS
Operating System: Linux
Default Encoding: UTF-8
Language: en
Country: null
--></g></svg>